<svg height="512pt" viewBox="-26 0 512 512" width="512pt" xmlns="http://www.w3.org/2000/svg"><path d="m42.667969 204.800781h375.464843c18.851563 0 34.132813 15.28125 34.132813 34.132813v230.398437c0 18.851563-15.28125 34.132813-34.132813 34.132813h-375.464843c-18.851563 0-34.132813-15.28125-34.132813-34.132813v-230.398437c0-18.851563 15.28125-34.132813 34.132813-34.132813zm0 0" fill="#283593"/><path d="m452.265625 238.933594v34.132812h-443.730469v-34.132812c0-18.851563 15.28125-34.132813 34.132813-34.132813h375.464843c18.851563 0 34.132813 15.28125 34.132813 34.132813zm0 0" fill="#6a1b9a"/><path d="m42.667969 204.800781h349.867187c18.847656 0 34.132813 15.28125 34.132813 34.132813v230.398437c0 18.851563-15.285157 34.132813-34.132813 34.132813h-349.867187c-18.851563 0-34.132813-15.28125-34.132813-34.132813v-230.398437c0-18.851563 15.28125-34.132813 34.132813-34.132813zm0 0" fill="#3f51b5"/><path d="m426.667969 238.933594v34.132812h-418.132813v-34.132812c0-18.851563 15.28125-34.132813 34.132813-34.132813h349.867187c18.847656 0 34.132813 15.28125 34.132813 34.132813zm0 0" fill="#9d27b0"/><path d="m366.933594 179.199219v25.601562h-273.066406v-25.601562c.027343-9.414063 7.652343-17.039063 17.066406-17.066407h238.933594c9.414062.027344 17.039062 7.652344 17.066406 17.066407zm0 0" fill="#37474f"/><path d="m341.332031 179.199219v25.601562h-247.464843v-25.601562c.027343-9.414063 7.652343-17.039063 17.066406-17.066407h213.332031c9.414063.027344 17.039063 7.652344 17.066406 17.066407zm0 0" fill="#607d8b"/><path d="m264.535156 39.507812c45.792969 14.792969 76.820313 57.433594 76.796875 105.558594v17.066406h-221.867187v-17.066406c-.019532-48.125 31.007812-90.765625 76.800781-105.558594zm0 0" fill="#cfd8dc"/><g fill="#607d8b"><path d="m204.800781 8.535156h51.199219c4.710938 0 8.535156 3.820313 8.535156 8.53125v93.867188c0 9.425781-7.644531 17.066406-17.070312 17.066406h-34.132813c-9.425781 0-17.066406-7.640625-17.066406-17.066406v-93.867188c0-4.710937 3.820313-8.53125 8.535156-8.53125zm0 0"/><path d="m162.132812 119.464844h-39.679687c4.6875-19.855469 14.789063-38.019532 29.183594-52.476563zm0 0"/><path d="m338.347656 119.464844h-39.679687l10.496093-52.476563c14.394532 14.457031 24.496094 32.621094 29.183594 52.476563zm0 0"/></g><path d="m59.050781 235.691406c-.167969-.523437-.429687-1.015625-.769531-1.453125-.339844-.511719-.679688-.9375-1.023438-1.363281l-1.277343-1.023438c-.476563-.324218-.992188-.582031-1.539063-.769531-.480468-.246093-1-.417969-1.535156-.511719-2.515625-.535156-5.136719.097657-7.125 1.726563-1.992188 1.625-3.136719 4.066406-3.113281 6.636719.011719 1.113281.242187 2.214844.679687 3.242187.433594 1.035157 1.039063 1.984375 1.792969 2.816407 1.636719 1.558593 3.800781 2.441406 6.058594 2.472656.574219-.011719 1.144531-.070313 1.707031-.167969.535156-.09375 1.054688-.265625 1.535156-.511719.546875-.1875 1.0625-.445312 1.539063-.769531l1.277343-1.023437c.753907-.832032 1.359376-1.78125 1.792969-2.816407.476563-1.011719.710938-2.121093.683594-3.242187-.015625-.574219-.074219-1.144532-.171875-1.707032-.09375-.535156-.265625-1.050781-.511719-1.535156zm0 0"/><path d="m93.183594 235.691406c-.167969-.523437-.429688-1.015625-.769532-1.453125-.339843-.511719-.679687-.9375-1.023437-1.363281l-1.277344-1.023438c-.476562-.324218-.992187-.582031-1.539062-.769531-.480469-.246093-1-.417969-1.535157-.511719-2.511718-.535156-5.132812.097657-7.125 1.726563-1.992187 1.625-3.136718 4.066406-3.113281 6.636719.011719 1.113281.246094 2.214844.683594 3.242187.429687 1.035157 1.039063 1.984375 1.789063 2.816407 1.636718 1.558593 3.800781 2.441406 6.058593 2.472656.574219-.011719 1.144531-.070313 1.707031-.167969.535157-.09375 1.054688-.265625 1.535157-.511719.546875-.1875 1.0625-.445312 1.539062-.769531l1.277344-1.023437c.753906-.832032 1.359375-1.78125 1.792969-2.816407.480468-1.011719.710937-2.121093.683594-3.242187-.015626-.574219-.070313-1.144532-.171876-1.707032-.09375-.535156-.265624-1.050781-.511718-1.535156zm0 0"/><path d="m127.316406 235.691406c-.167968-.523437-.429687-1.015625-.765625-1.453125-.34375-.511719-.683593-.9375-1.027343-1.363281l-1.277344-1.023438c-.476563-.324218-.992188-.582031-1.535156-.769531-.484376-.246093-1.003907-.417969-1.539063-.511719-2.511719-.535156-5.132813.097657-7.125 1.726563-1.992187 1.625-3.136719 4.066406-3.113281 6.636719.011718 1.113281.246094 2.214844.683594 3.242187.433593 1.035157 1.039062 1.984375 1.789062 2.816407 1.636719 1.558593 3.800781 2.441406 6.058594 2.472656.574218-.011719 1.144531-.070313 1.707031-.167969.535156-.09375 1.054687-.265625 1.539063-.511719.542968-.1875 1.058593-.445312 1.535156-.769531l1.277344-1.023437c.753906-.832032 1.359374-1.78125 1.792968-2.816407.480469-1.011719.714844-2.121093.683594-3.242187-.015625-.574219-.070312-1.144532-.171875-1.707032-.089844-.535156-.265625-1.050781-.511719-1.535156zm0 0"/><path d="m256 0h-51.199219c-9.425781 0-17.066406 7.640625-17.066406 17.066406v16.488282c-46.324219 17.550781-76.917969 61.976562-76.800781 111.511718v8.535156c-14.140625 0-25.601563 11.460938-25.601563 25.597657v17.066406h-42.664062c-23.554688.027344-42.6406252 19.117187-42.667969 42.667969v230.398437c.0273438 23.554688 19.113281 42.640625 42.667969 42.667969h375.464843c23.554688-.027344 42.640626-19.113281 42.667969-42.667969v-230.398437c-.027343-23.550782-19.113281-42.640625-42.667969-42.667969h-42.667968v-17.066406c0-14.136719-11.460938-25.597657-25.597656-25.597657v-8.535156c.117187-49.535156-30.476563-93.960937-76.800782-111.511718v-16.488282c0-9.425781-7.640625-17.066406-17.066406-17.066406zm-51.199219 17.066406h51.199219v93.867188c0 4.710937-3.820312 8.53125-8.535156 8.53125h-34.132813c-4.710937 0-8.53125-3.820313-8.53125-8.53125zm-52.746093 93.867188h-18.199219c3.289062-9.414063 7.941406-18.296875 13.8125-26.359375zm266.078124 384h-375.464843c-14.140625 0-25.601563-11.460938-25.601563-25.601563v-187.730469h426.667969v187.730469c0 14.140625-11.460937 25.601563-25.601563 25.601563zm25.601563-256v25.601562h-426.667969v-25.601562c0-14.140625 11.460938-25.601563 25.601563-25.601563h375.464843c14.140626 0 25.601563 11.460938 25.601563 25.601563zm-85.335937-59.734375v17.066406h-256v-17.066406c0-4.710938 3.820312-8.53125 8.535156-8.53125h238.933594c4.710937 0 8.53125 3.820312 8.53125 8.53125zm-45.226563-94.625c5.859375 8.066406 10.496094 16.945312 13.773437 26.359375h-18.199218zm-14.667969-16.035157-8.25 49.492188c-.421875 2.480469.269532 5.019531 1.890625 6.941406 1.621094 1.917969 4.007813 3.027344 6.523438 3.027344h32.699219c.949218 5.640625 1.425781 11.347656 1.433593 17.066406v8.535156h-204.800781v-8.535156c.003906-5.71875.484375-11.425781 1.433594-17.066406h32.699218c2.507813 0 4.890626-1.105469 6.511719-3.019531 1.621094-1.917969 2.316407-4.449219 1.902344-6.921875l-8.25-49.492188c7.605469-6.746094 16.179687-12.308594 25.4375-16.511718v58.878906c0 14.136718 11.460937 25.601562 25.597656 25.601562h34.132813c14.140625 0 25.601562-11.464844 25.601562-25.601562v-58.878906c9.253906 4.195312 17.828125 9.75 25.4375 16.484374zm0 0"/><path d="m162.132812 418.132812h-8.53125v-17.066406c0-4.710937-3.820312-8.53125-8.535156-8.53125-4.710937 0-8.53125 3.820313-8.53125 8.53125v17.066406h-35.925781l60.261719-97.929687c1.800781-2.59375 2.019531-5.972656.570312-8.777344-1.449218-2.808593-4.332031-4.582031-7.488281-4.617187-3.160156-.035156-6.078125 1.679687-7.589844 4.453125l-68.265625 110.933593c-1.617187 2.628907-1.691406 5.925782-.1875 8.621094 1.5 2.695313 4.335938 4.371094 7.421875 4.382813h51.203125v17.066406c0 4.714844 3.820313 8.535156 8.53125 8.535156 4.714844 0 8.535156-3.820312 8.535156-8.535156v-17.066406h8.53125c4.714844 0 8.535157-3.820313 8.535157-8.53125 0-4.714844-3.820313-8.535157-8.535157-8.535157zm0 0"/><path d="m375.464844 418.132812h-8.53125v-17.066406c0-4.710937-3.820313-8.53125-8.535156-8.53125-4.710938 0-8.53125 3.820313-8.53125 8.53125v17.066406h-35.925782l60.261719-97.929687c2.167969-3.980469.84375-8.960937-3.015625-11.339844-3.859375-2.378906-8.90625-1.328125-11.492188 2.398438l-68.265624 110.933593c-1.617188 2.628907-1.6875 5.925782-.1875 8.621094 1.5 2.695313 4.339843 4.371094 7.425781 4.382813h51.199219v17.066406c0 4.714844 3.820312 8.535156 8.53125 8.535156 4.714843 0 8.535156-3.820312 8.535156-8.535156v-17.066406h8.53125c4.714844 0 8.535156-3.820313 8.535156-8.53125 0-4.714844-3.820312-8.535157-8.535156-8.535157zm0 0"/><path d="m247.464844 307.199219h-34.132813c-14.136719 0-25.597656 11.460937-25.597656 25.601562v102.398438c0 14.140625 11.460937 25.601562 25.597656 25.601562h34.132813c14.140625 0 25.601562-11.460937 25.601562-25.601562v-102.398438c0-14.140625-11.460937-25.601562-25.601562-25.601562zm8.535156 128c0 4.714843-3.820312 8.535156-8.535156 8.535156h-34.132813c-4.710937 0-8.53125-3.820313-8.53125-8.535156v-102.398438c0-4.714843 3.820313-8.535156 8.53125-8.535156h34.132813c4.714844 0 8.535156 3.820313 8.535156 8.535156zm0 0"/></svg>